<?xml version="1.0" standalone="no"?>
<!DOCTYPE svg PUBLIC "-//W3C//DTD SVG 20010904//EN"
 "http://www.w3.org/TR/2001/REC-SVG-20010904/DTD/svg10.dtd">
<svg version="1.0" xmlns="http://www.w3.org/2000/svg"
 width="260.000000pt" height="260.000000pt" viewBox="0 0 260.000000 260.000000"
 preserveAspectRatio="xMidYMid meet">
<metadata>
Created by potrace 1.14, written by Peter Selinger 2001-2017
</metadata>
<g transform="translate(0.000000,260.000000) scale(0.100000,-0.100000)"
fill="#000000" stroke="none">
<path d="M1192 2534 c4 -5 -13 -8 -38 -7 -24 1 -44 -2 -44 -8 0 -5 -7 -9 -16
-9 -8 0 -12 -4 -9 -10 3 -5 -3 -10 -15 -10 -12 0 -19 -3 -17 -7 3 -5 -4 -17
-15 -28 -19 -20 -19 -20 -12 0 7 20 7 20 -9 0 -8 -11 -13 -23 -11 -27 3 -5 0
-8 -5 -8 -6 0 -11 -5 -11 -12 0 -6 -11 -26 -25 -44 -17 -22 -21 -35 -14 -40 8
-5 6 -10 -6 -17 -14 -7 -15 -11 -4 -18 11 -6 9 -12 -6 -29 -15 -17 -16 -20 -3
-15 17 7 20 -17 3 -32 -4 -4 -5 -2 0 6 5 10 4 12 -3 7 -9 -5 -9 -13 -2 -27 6
-10 7 -19 3 -19 -4 0 -2 -5 5 -12 9 -9 7 -17 -11 -33 -13 -11 -17 -16 -10 -11
18 12 16 0 -3 -29 -9 -14 -20 -22 -25 -19 -5 3 -6 -2 -3 -10 3 -9 1 -17 -5
-17 -6 -1 -17 -2 -23 -3 -7 -1 -12 -9 -10 -19 2 -10 -3 -17 -13 -17 -9 0 -13
-4 -10 -10 3 -5 -1 -10 -10 -10 -9 0 -13 -4 -10 -10 3 -5 -1 -10 -10 -10 -9 0
-13 -4 -10 -10 5 -9 -7 -14 -27 -11 -4 0 -5 -8 -3 -19 4 -22 -4 -26 -23 -10
-8 7 -9 7 -3 -1 11 -13 -6 -59 -26 -72 -7 -4 -13 -13 -13 -18 0 -16 -26 -39
-49 -42 -11 -2 -24 -7 -28 -12 -5 -4 -3 -5 3 -2 7 4 14 0 17 -8 4 -10 1 -12
-10 -8 -12 5 -14 3 -8 -8 7 -11 5 -11 -10 1 -10 8 -16 11 -13 5 8 -14 -14 -32
-34 -29 -10 1 -15 -3 -12 -11 3 -7 0 -16 -7 -21 -7 -4 -10 -3 -6 3 3 5 0 10
-7 10 -8 0 -11 -8 -8 -19 2 -10 -1 -18 -7 -18 -7 0 -9 5 -5 12 4 7 3 8 -4 4
-6 -4 -8 -14 -5 -23 4 -10 2 -14 -4 -10 -5 3 -16 -9 -23 -28 -8 -19 -17 -35
-22 -35 -4 0 -7 -5 -5 -12 1 -7 -3 -12 -10 -13 -6 0 -15 -4 -20 -9 -4 -5 -3
-6 3 -3 7 4 15 0 18 -9 3 -8 2 -12 -4 -9 -6 3 -10 2 -10 -4 0 -6 -6 -8 -14 -5
-8 3 -17 1 -21 -5 -3 -6 0 -9 8 -5 8 3 18 1 22 -5 3 -6 2 -11 -3 -11 -5 0 -25
-14 -43 -31 -19 -18 -26 -26 -16 -19 24 18 21 5 -5 -21 -13 -12 -17 -19 -11
-15 9 5 11 2 7 -8 -3 -8 -13 -12 -22 -10 -15 5 -15 4 1 -6 17 -11 25 -36 8
-25 -5 3 -13 1 -16 -5 -4 -6 -1 -9 6 -8 6 2 14 -3 17 -11 3 -8 0 -11 -7 -7 -7
5 -9 1 -5 -8 3 -9 11 -13 18 -9 7 4 7 2 -1 -7 -9 -10 -9 -18 -1 -34 6 -12 11
-22 10 -23 -1 -2 -2 -4 -1 -5 6 -21 5 -37 -2 -33 -5 4 -6 -1 -3 -9 3 -9 10
-16 15 -16 5 0 9 -5 9 -11 0 -5 -5 -7 -11 -3 -8 4 -8 0 0 -15 7 -11 17 -21 23
-21 7 0 6 -5 -2 -15 -9 -11 -9 -15 -1 -15 7 0 10 -4 6 -9 -3 -5 0 -13 5 -16 7
-5 5 -12 -7 -22 -10 -8 -13 -12 -7 -9 5 2 15 -8 21 -25 6 -16 7 -27 2 -23 -14
8 -29 -5 -22 -21 3 -8 13 -15 22 -15 14 0 14 -2 1 -10 -13 -9 -13 -10 0 -10
13 0 13 -1 0 -10 -10 -6 -11 -10 -2 -10 6 0 12 -7 12 -15 0 -8 -6 -15 -12 -15
-8 0 -9 -3 -3 -8 16 -12 17 -35 1 -29 -11 5 -13 0 -6 -24 6 -19 5 -27 -1 -23
-6 3 -9 -2 -7 -12 2 -13 -2 -18 -12 -16 -12 3 -12 1 -3 -9 12 -12 6 -42 -7
-34 -5 3 -12 1 -15 -5 -4 -6 -3 -10 2 -9 20 4 24 -2 12 -18 -12 -14 -12 -15
-1 -9 11 7 12 4 3 -12 -13 -25 -14 -35 -2 -28 11 7 9 -13 -3 -33 -7 -10 -6
-12 4 -6 10 6 12 0 8 -23 -4 -25 -2 -29 9 -21 10 9 13 7 13 -10 0 -11 5 -21
10 -21 6 0 10 -6 10 -14 0 -7 8 -20 18 -27 16 -13 16 -13 2 6 -14 20 -14 20 7
1 13 -10 20 -24 16 -30 -4 -6 0 -6 9 1 12 11 18 9 33 -7 18 -20 41 -28 30 -10
-3 6 1 7 9 4 9 -3 13 -10 10 -15 -3 -6 6 -8 20 -5 15 3 32 -2 41 -10 9 -10 15
-11 15 -4 0 7 6 5 16 -4 20 -21 25 -20 18 2 -5 16 -5 16 6 -1 6 -10 16 -14 23
-10 8 4 7 1 -1 -9 -10 -13 -10 -18 -1 -24 8 -4 9 -3 5 4 -11 19 5 14 21 -5 10
-12 12 -13 8 -3 -4 10 -2 9 8 -2 8 -10 20 -18 26 -18 7 0 9 -5 5 -12 -5 -8 -2
-9 11 -4 15 5 16 4 5 -9 -11 -13 -10 -14 4 -9 9 3 16 1 16 -5 0 -6 5 -11 11
-11 5 0 7 6 4 12 -4 7 2 3 13 -9 11 -12 22 -19 26 -16 3 4 6 1 6 -5 0 -7 9
-12 20 -12 11 0 20 -7 20 -15 0 -8 -5 -15 -12 -15 -6 0 -8 -3 -5 -6 4 -4 13
-1 21 5 19 16 39 4 31 -18 -5 -13 -4 -14 6 -3 15 14 33 16 24 2 -3 -5 -1 -10
4 -10 6 0 11 5 11 11 0 5 5 7 10 4 6 -4 8 -10 5 -15 -3 -5 0 -12 6 -16 8 -4 9
-3 5 4 -5 8 0 12 13 12 12 0 21 -4 21 -10 0 -5 13 -7 30 -5 16 2 33 -1 36 -7
5 -7 2 -8 -7 -3 -8 5 -10 4 -6 0 13 -15 87 -26 87 -13 0 5 5 6 10 3 6 -4 8
-10 6 -14 -6 -9 31 -7 40 2 11 10 26 8 20 -2 -7 -11 13 -9 32 2 7 5 12 4 12
-2 0 -6 5 -11 11 -11 5 0 8 3 5 8 -9 15 115 6 126 -9 8 -11 9 -11 5 3 -8 23
41 17 60 -7 7 -11 13 -14 13 -9 0 6 -5 15 -12 22 -10 10 -2 12 34 11 26 -1 54
3 62 10 11 9 16 9 22 0 5 -8 3 -9 -6 -4 -9 5 -11 4 -6 -4 6 -9 11 -9 23 1 22
18 86 47 94 42 4 -2 9 6 12 17 3 12 10 18 16 15 5 -4 13 3 16 15 5 14 13 19
25 16 14 -4 17 0 15 15 -4 17 -2 18 12 6 15 -11 16 -11 10 6 -5 13 -3 17 7 13
9 -4 16 2 19 15 4 12 11 18 20 15 8 -3 20 -1 28 5 11 8 10 9 -4 4 -11 -3 -16
-2 -12 4 3 6 14 10 23 10 21 0 53 35 44 46 -4 5 2 2 12 -6 16 -12 18 -12 11
-1 -5 9 -3 18 7 25 8 6 17 16 19 21 2 6 11 9 21 9 9 -1 14 4 11 11 -2 7 1 16
8 21 8 5 10 3 4 -7 -7 -12 -6 -12 7 -1 13 10 17 10 22 0 3 -7 3 -2 0 11 -4 16
-3 21 5 17 6 -4 11 -3 11 3 0 6 12 22 28 37 15 15 20 23 12 20 -8 -4 -6 0 4 8
11 9 25 16 30 16 6 0 4 5 -4 10 -8 5 -10 10 -4 10 7 0 11 8 10 18 0 10 6 17
16 17 9 0 20 4 25 8 4 5 4 8 -2 7 -24 -5 -27 1 -9 15 16 13 17 16 4 26 -12 9
-11 10 8 6 19 -5 21 -3 11 9 -9 11 -8 18 2 31 8 9 10 14 4 11 -6 -3 -10 6 -11
23 -1 15 3 26 7 23 5 -3 9 -1 9 5 0 5 -6 12 -12 14 -8 3 -7 6 4 6 22 1 32 17
17 27 -8 4 -9 3 -5 -4 4 -7 1 -12 -8 -12 -22 0 -20 5 12 36 15 15 19 22 9 14
-15 -11 -17 -11 -11 4 3 9 10 16 15 16 5 0 9 8 9 17 0 9 7 25 17 35 11 13 12
18 3 18 -10 0 -10 3 -1 14 8 10 9 16 1 21 -7 4 -7 12 0 26 8 13 7 19 0 19 -6
0 -8 5 -5 10 3 6 2 10 -3 10 -5 0 -8 11 -7 25 2 14 -2 25 -8 25 -5 0 -7 3 -4
7 4 3 2 12 -5 20 -8 10 -8 12 3 8 10 -4 15 1 15 14 0 11 -4 17 -8 15 -8 -5
-12 17 -8 50 1 11 -3 16 -9 11 -7 -3 -10 -3 -9 2 1 4 -4 19 -12 33 -12 23 -12
24 4 11 14 -12 16 -12 10 3 -3 9 -11 16 -18 16 -6 0 -4 5 4 10 13 8 13 10 1
10 -12 0 -12 3 -3 12 7 7 12 17 12 23 0 5 -5 3 -10 -5 -8 -13 -10 -13 -10 2 0
9 -3 25 -6 35 -5 15 -4 16 6 3 10 -13 11 -12 6 3 -3 10 -6 21 -6 23 0 3 -6 2
-12 -2 -10 -6 -10 -4 -2 7 16 22 11 43 -13 54 -13 5 -23 13 -23 18 0 4 6 5 13
1 9 -6 9 -5 0 8 -7 8 -9 19 -5 23 4 5 1 5 -5 1 -7 -4 -13 -2 -13 4 0 6 -4 9
-8 6 -4 -2 -9 4 -9 15 -1 12 3 17 9 13 7 -4 8 -2 4 4 -4 7 -14 12 -22 12 -13
0 -19 13 -15 34 1 5 -5 6 -14 2 -11 -4 -14 -2 -9 6 5 7 2 9 -9 5 -10 -4 -18 1
-22 14 -4 10 -11 19 -17 19 -7 0 -6 5 1 14 9 11 9 16 0 22 -8 4 -9 3 -5 -4 4
-7 1 -12 -7 -12 -8 0 -18 7 -21 16 -3 8 -10 12 -16 9 -5 -3 -7 0 -4 8 4 11 -1
13 -20 10 -25 -5 -32 4 -26 32 1 6 -4 5 -10 -2 -9 -8 -17 -7 -31 5 -10 8 -15
20 -12 25 3 5 -5 4 -17 -3 -20 -11 -22 -10 -17 4 6 14 3 15 -16 5 -22 -12 -22
-12 -3 10 11 11 14 21 8 21 -6 0 -13 -6 -16 -12 -5 -10 -7 -10 -12 0 -5 10 -9
10 -22 0 -12 -10 -14 -10 -8 0 4 7 2 12 -4 12 -6 0 -8 5 -4 12 5 8 2 9 -9 5
-12 -4 -17 -1 -17 10 0 12 -3 13 -15 3 -12 -10 -13 -8 -10 10 4 19 2 20 -12 8
-12 -9 -15 -9 -9 0 4 7 2 12 -4 12 -6 0 -8 5 -4 12 5 8 2 9 -9 5 -12 -4 -17
-1 -17 11 0 15 -2 15 -10 2 -6 -10 -10 -11 -10 -2 0 6 -7 12 -15 12 -8 0 -15
5 -15 11 0 5 -5 7 -11 4 -15 -10 -78 36 -72 52 3 8 -2 13 -12 13 -15 0 -16 2
-4 17 11 13 11 15 1 9 -8 -5 -19 -1 -27 10 -18 24 -19 37 -2 28 6 -4 2 4 -10
17 -16 18 -20 28 -12 36 8 8 7 13 -2 18 -8 6 -10 4 -4 -5 6 -9 4 -11 -5 -5
-10 6 -9 11 5 22 16 11 17 13 2 13 -10 0 -15 7 -12 20 2 11 -1 20 -7 20 -6 0
-9 3 -5 6 6 7 -28 42 -59 61 -10 6 -18 16 -16 23 1 6 -2 9 -7 6 -5 -4 -14 2
-20 11 -6 10 -11 13 -11 6 0 -6 5 -15 10 -18 6 -3 10 -10 10 -16 0 -5 -9 0
-20 11 -11 11 -19 25 -17 31 1 6 -5 14 -13 16 -13 4 -13 3 0 -7 13 -10 13 -11
0 -7 -9 2 -14 13 -12 27 2 13 0 20 -7 16 -6 -4 -8 2 -6 14 2 11 0 22 -4 25 -5
2 -7 16 -6 30 2 17 -2 25 -11 25 -9 0 -13 4 -10 8 3 5 0 9 -7 9 -7 0 -21 4
-31 9 -11 4 -17 4 -14 -2z m288 -408 c0 -3 -4 -8 -10 -11 -5 -3 -10 -1 -10 4
0 6 5 11 10 11 6 0 10 -2 10 -4z m717 -631 c0 -20 -4 -19 -17 5 -8 15 -8 18 3
14 8 -3 14 -11 14 -19z m-1792 -513 c-3 -3 -11 0 -18 7 -9 10 -8 11 6 5 10 -3
15 -9 12 -12z m745 -778 c0 -8 -19 -13 -24 -6 -3 5 1 9 9 9 8 0 15 -2 15 -3z"/>
<path d="M920 2160 c0 -5 5 -10 11 -10 5 0 7 5 4 10 -3 6 -8 10 -11 10 -2 0
-4 -4 -4 -10z"/>
<path d="M1550 2026 c0 -2 8 -10 18 -17 15 -13 16 -12 3 4 -13 16 -21 21 -21
13z"/>
<path d="M2170 665 c0 -5 5 -17 10 -25 5 -8 10 -10 10 -5 0 6 -5 17 -10 25 -5
8 -10 11 -10 5z"/>
<path d="M800 300 c-9 -6 -10 -10 -3 -10 6 0 15 5 18 10 8 12 4 12 -15 0z"/>
<path d="M1056 193 c-6 -14 -5 -15 5 -6 7 7 10 15 7 18 -3 3 -9 -2 -12 -12z"/>
</g>
</svg>
